<svg xmlns="http://www.w3.org/2000/svg" width="22" height="22" viewBox="0 0 22 22">
  <g id="avalanche-avax-seeklogo.com" transform="translate(0.045 0.045)">
    <circle id="Ellipse_439" data-name="Ellipse 439" cx="11" cy="11" r="11" transform="translate(-0.045 -0.045)" fill="#e84142"/>
    <path id="Path_6386" data-name="Path 6386" d="M48.648,40.48a.724.724,0,0,1,1.372,0l2.364,4.149c.38.656.069,1.19-.69,1.19H46.932c-.75,0-1.061-.535-.69-1.19Zm-4.572-7.988a.718.718,0,0,1,1.363,0l.526.949,1.242,2.182a2.267,2.267,0,0,1,0,1.975l-4.166,7.22a2.191,2.191,0,0,1-1.708,1H37.874c-.759,0-1.07-.526-.69-1.19Z" transform="translate(-33.828 -29.24)" fill="#fff"/>
  </g>
</svg>
