<svg xmlns="http://www.w3.org/2000/svg" width="21.997" height="22" viewBox="0 0 21.997 22">
  <g id="Group_3407" data-name="Group 3407" transform="translate(-314.998 -318)">
    <path id="Path_6388" data-name="Path 6388" d="M21.666,13.664A11,11,0,1,1,13.655.333a11,11,0,0,1,8.01,13.332Z" transform="translate(315 317.997)" fill="#f7931a"/>
    <g id="Group_3398" data-name="Group 3398">
      <path id="Path_6389" data-name="Path 6389" d="M26.066,16.754c.219-1.464-.9-2.251-2.419-2.775L24.141,12l-1.207-.3-.481,1.93q-.482-.118-.967-.228l.485-1.943-1.207-.3-.494,1.982c-.263-.06-.52-.119-.771-.181v-.006l-1.664-.416-.321,1.289s.9.205.877.218a.642.642,0,0,1,.562.7L18.391,17a1.059,1.059,0,0,1,.125.04l-.128-.032L17.6,20.174a.44.44,0,0,1-.553.287c.012.018-.877-.219-.877-.219l-.6,1.382,1.571.392c.292.073.579.15.86.222l-.5,2.005,1.206.3.494-1.984c.329.09.649.172.962.25l-.493,1.975,1.207.3.5-2c2.058.389,3.606.232,4.257-1.629a2.118,2.118,0,0,0-1.109-2.927A1.926,1.926,0,0,0,26.066,16.754ZM23.308,20.62c-.373,1.5-2.9.689-3.715.485l.663-2.657C21.074,18.654,23.7,19.058,23.308,20.62Zm.373-3.888c-.34,1.363-2.441.67-3.122.5l.6-2.41c.681.17,2.875.487,2.521,1.909Z" transform="translate(304.781 310.679)" fill="#fff"/>
    </g>
  </g>
</svg>
