<svg xmlns="http://www.w3.org/2000/svg" width="22" height="22" viewBox="0 0 22 22">
  <g id="tether-seeklogo.com" transform="translate(-4.465 -13.693)">
    <circle id="Ellipse_440" data-name="Ellipse 440" cx="11" cy="11" r="11" transform="translate(4.465 13.693)" fill="#26a17b"/>
    <g id="Group_3382" data-name="Group 3382" transform="translate(8.61 19.103)">
      <path id="Path_6387" data-name="Path 6387" d="M35.932,50.888v0c-.076.005-.469.028-1.342.028-.7,0-1.188-.019-1.362-.028v0c-2.686-.118-4.69-.585-4.69-1.146s2.005-1.027,4.69-1.146v1.827c.175.012.679.042,1.374.042.835,0,1.252-.035,1.33-.042V48.6c2.681.12,4.679.587,4.679,1.146s-2,1.026-4.679,1.146m0-2.481V46.775h3.74V44.283H29.49v2.492h3.74v1.634c-3.04.14-5.325.741-5.325,1.463s2.287,1.323,5.325,1.464v5.238h2.7V51.336c3.035-.14,5.316-.741,5.316-1.463s-2.281-1.323-5.316-1.463" transform="translate(-27.905 -44.283)" fill="#fff"/>
    </g>
  </g>
</svg>
