<svg xmlns="http://www.w3.org/2000/svg" width="131.772" height="148.164" viewBox="0 0 131.772 148.164">
  <g id="Group_4801" data-name="Group 4801" transform="translate(-669.745 -373.115)">
    <ellipse id="Ellipse_475" data-name="Ellipse 475" cx="44.5" cy="3.5" rx="44.5" ry="3.5" transform="translate(691 514.279)" fill="#040118"/>
    <g id="Group_4805" data-name="Group 4805" transform="translate(711.609 441.374)">
      <path id="Path_7112" data-name="Path 7112" d="M30.83,16.3a17.029,17.029,0,0,1-.484,6.261,14.538,14.538,0,0,1-2.565,5.15,12.747,12.747,0,0,1-4.258,3.516,12.525,12.525,0,0,1-5.558,1.339,14.179,14.179,0,0,1-5.858-1.226,16.837,16.837,0,0,1-5.054-3.472A18.927,18.927,0,0,1,1.57,16.3a16.966,16.966,0,0,1,.557-6.357A14.434,14.434,0,0,1,4.807,4.795,12.483,12.483,0,0,1,14.731.158a14.279,14.279,0,0,1,5.784,1.32,16.917,16.917,0,0,1,4.94,3.473A18.939,18.939,0,0,1,30.83,16.3" transform="translate(0)" fill="#ffbe1b"/>
      <path id="Path_7113" data-name="Path 7113" d="M23.149,12.221a12.778,12.778,0,0,1-.37,4.708A10.9,10.9,0,0,1,20.845,20.8a9.561,9.561,0,0,1-3.2,2.632,9.4,9.4,0,0,1-4.174.993,10.649,10.649,0,0,1-4.39-.929,12.648,12.648,0,0,1-3.783-2.607,14.21,14.21,0,0,1-4.105-8.663A12.743,12.743,0,0,1,1.6,7.459a10.848,10.848,0,0,1,2-3.868A9.531,9.531,0,0,1,6.855,1.008,9.426,9.426,0,0,1,11.038.089a10.708,10.708,0,0,1,4.349.983,12.689,12.689,0,0,1,3.718,2.608,14.219,14.219,0,0,1,4.044,8.542" transform="translate(4.095 4.083)" fill="#ffe37b"/>
      <path id="Path_7114" data-name="Path 7114" d="M11.008,9.891a3.929,3.929,0,0,0-.09-.534,3.354,3.354,0,0,0-.158-.488,3.048,3.048,0,0,0-.226-.443,2.993,2.993,0,0,0-.294-.4,3.153,3.153,0,0,0-.352-.343,3.014,3.014,0,0,0-.4-.279,3.118,3.118,0,0,0-.44-.214,3.472,3.472,0,0,0-.484-.151l.12-.062.1-.052.08-.043.06-.035a.55.55,0,0,0,.06-.04q.035-.026.078-.063t.1-.086l.115-.108a1.717,1.717,0,0,0,.314-.379,1.926,1.926,0,0,0,.2-.468,2.608,2.608,0,0,0,.094-.557A3.887,3.887,0,0,0,9.876,4.5a3.577,3.577,0,0,0-.1-.557,3.438,3.438,0,0,0-.187-.527,3.6,3.6,0,0,0-.273-.5,4.068,4.068,0,0,0-.359-.469,2.279,2.279,0,0,0-.244-.232,2.693,2.693,0,0,0-.29-.207,3.328,3.328,0,0,0-.336-.182q-.18-.085-.383-.157l-.122-.041L7.454,1.6l-.13-.035-.133-.032L7.042.034,5.179.025l.135,1.354-1.253,0L3.926.019,2.055.01l.134,1.357-.525,0L.134,1.359l.22,2.23,1.531,0,.728,7.361-1.532,0L1.3,13.2l1.533-.006.526,0L3.5,14.557l1.876-.009-.136-1.363,1.255,0,.136,1.362L8.5,14.533l-.141-1.411a4.921,4.921,0,0,0,.7-.137,3.318,3.318,0,0,0,.585-.221,2.4,2.4,0,0,0,.473-.305,2.012,2.012,0,0,0,.361-.392,3.109,3.109,0,0,0,.281-.49,2.981,2.981,0,0,0,.183-.526,3.164,3.164,0,0,0,.085-.562,3.674,3.674,0,0,0-.013-.6M6.927,3.856a.857.857,0,0,1,.209.161,1,1,0,0,1,.161.226,1.425,1.425,0,0,1,.112.292,2.228,2.228,0,0,1,.064.358,1.962,1.962,0,0,1,.006.358,1.1,1.1,0,0,1-.06.289.7.7,0,0,1-.127.22.631.631,0,0,1-.194.15,1.5,1.5,0,0,1-.261.1,2.562,2.562,0,0,1-.328.074q-.181.03-.395.044t-.461.015H4.521L4.267,3.6l1.144,0q.263,0,.489.017t.416.048a2.611,2.611,0,0,1,.342.079,1.474,1.474,0,0,1,.269.111m1.207,6.8a1.5,1.5,0,0,1-.274.123,2.462,2.462,0,0,1-.342.088,3.958,3.958,0,0,1-.409.053q-.221.018-.476.019L5,10.948,4.728,8.226h1.4q.3,0,.556.016t.477.048a3.483,3.483,0,0,1,.4.081,2.062,2.062,0,0,1,.322.114,1,1,0,0,1,.253.165,1.021,1.021,0,0,1,.192.235,1.33,1.33,0,0,1,.132.3,2.185,2.185,0,0,1,.077.749,1.2,1.2,0,0,1-.065.308.815.815,0,0,1-.135.241.755.755,0,0,1-.206.174" transform="translate(10.595 9.032)" fill="#fff"/>
    </g>
    <g id="Group_4804" data-name="Group 4804" transform="translate(14.43 -6.357)">
      <g id="Group_4803" data-name="Group 4803" transform="translate(737.804 413.133)">
        <path id="Path_7115" data-name="Path 7115" d="M32.9,20.4a18.657,18.657,0,0,1-2.615,6.1,18.271,18.271,0,0,1-4.359,4.614,16.348,16.348,0,0,1-5.486,2.676,14.068,14.068,0,0,1-5.993.3,12.872,12.872,0,0,1-5.363-2.214A13.387,13.387,0,0,1,5.3,27.687a15.176,15.176,0,0,1-1.889-5.56,17.337,17.337,0,0,1,.328-6.349A18.672,18.672,0,0,1,6.314,9.8a18.3,18.3,0,0,1,4.257-4.554,16.419,16.419,0,0,1,5.38-2.7,14.143,14.143,0,0,1,5.943-.409,12.892,12.892,0,0,1,5.4,2.095,13.334,13.334,0,0,1,3.888,4.128,15.1,15.1,0,0,1,2,5.588A17.285,17.285,0,0,1,32.9,20.4" transform="translate(0 0)" fill="#5d8ef9"/>
        <path id="Path_7116" data-name="Path 7116" d="M24.694,15.347a14.005,14.005,0,0,1-1.959,4.566,13.719,13.719,0,0,1-3.262,3.458,12.279,12.279,0,0,1-4.108,2.012,10.569,10.569,0,0,1-4.5.238,9.658,9.658,0,0,1-4.028-1.651A10.045,10.045,0,0,1,3.99,20.831a11.388,11.388,0,0,1-1.428-4.176A13.006,13.006,0,0,1,2.8,11.88a14.014,14.014,0,0,1,1.937-4.5A13.729,13.729,0,0,1,7.945,3.957a12.316,12.316,0,0,1,4.048-2.027,10.609,10.609,0,0,1,4.465-.3A9.682,9.682,0,0,1,20.51,3.217a10.011,10.011,0,0,1,2.909,3.1,11.333,11.333,0,0,1,1.488,4.191,12.981,12.981,0,0,1-.213,4.835" transform="translate(4.513 4.466)" fill="#8ac9f9"/>
        <path id="Path_7117" data-name="Path 7117" d="M4.475,11.8.846,7.468,7.065.684l2.757,8.2Z" transform="translate(12.993 9.331)" fill="#fff"/>
        <path id="Path_7118" data-name="Path 7118" d="M4.475,8.355,1.782,0,5.353,4.586l5.406-3.161Z" transform="translate(11.827 17.785)" fill="#fff"/>
      </g>
    </g>
    <path id="Path_7122" data-name="Path 7122" d="M90.807,64.947l.587.15-.587.146A9.643,9.643,0,0,0,83.8,72.251l-.146.59-.147-.59a9.648,9.648,0,0,0-7.011-7.008L75.9,65.1l.59-.15A9.648,9.648,0,0,0,83.5,57.939l.147-.59.146.59a9.643,9.643,0,0,0,7.011,7.008" transform="translate(693.988 420.891)" fill="#ff467f"/>
    <path id="Path_7123" data-name="Path 7123" d="M32.966,45.5l.373.1-.373.091a6.1,6.1,0,0,0-4.427,4.428l-.09.371-.1-.371a6.093,6.093,0,0,0-4.428-4.428l-.373-.091.373-.1a6.089,6.089,0,0,0,4.428-4.425l.1-.371.09.371A6.092,6.092,0,0,0,32.966,45.5" transform="translate(669.167 413.001)" fill="#ffc571"/>
    <path id="Path_7124" data-name="Path 7124" d="M41.533,36.19l.631.158-.631.159A10.3,10.3,0,0,0,34.041,44l-.158.628L33.725,44a10.3,10.3,0,0,0-7.492-7.492l-.628-.159.628-.158A10.3,10.3,0,0,0,33.725,28.7l.159-.628.158.628a10.3,10.3,0,0,0,7.492,7.492" transform="translate(644.14 383.009)" fill="#ffc571"/>
    <path id="Path_7125" data-name="Path 7125" d="M86.513,48.246l.484.121-.484.121a7.893,7.893,0,0,0-5.736,5.736l-.121.481-.121-.481A7.888,7.888,0,0,0,74.8,48.488l-.481-.121.481-.121a7.891,7.891,0,0,0,5.734-5.736l.121-.484.121.484a7.9,7.9,0,0,0,5.736,5.736" transform="translate(714.521 405.343)" fill="#02fbff"/>
    <path id="Path_7126" data-name="Path 7126" d="M86.428,96.325H37.873a5.565,5.565,0,0,1-5.565-5.565V57.828H91.99V90.76a5.564,5.564,0,0,1-5.562,5.565" transform="translate(673.318 421.118)" fill="#2b2e35"/>
    <path id="Path_7127" data-name="Path 7127" d="M93.109,49.177H34.139A4.938,4.938,0,0,0,29.2,54.112v4.474a4.938,4.938,0,0,0,4.937,4.937h58.97a4.936,4.936,0,0,0,4.935-4.937V54.112a4.936,4.936,0,0,0-4.935-4.935" transform="translate(671.846 417.017)" fill="#6a00ff"/>
    <path id="Rectangle_3069" data-name="Rectangle 3069" d="M1.246,0h16.8a1.246,1.246,0,0,1,1.246,1.246V4.092a1.246,1.246,0,0,1-1.246,1.246H1.248A1.248,1.248,0,0,1,0,4.09V1.246A1.246,1.246,0,0,1,1.246,0Z" transform="translate(725.825 485.988)" fill="#edf3fc"/>
    <g id="Group_4802" data-name="Group 4802" transform="translate(706.082 373.115)">
      <path id="Path_7119" data-name="Path 7119" d="M43.525,20.58a22.864,22.864,0,0,1-2.666,8.1,24.969,24.969,0,0,1-5.3,6.624,24.407,24.407,0,0,1-7.148,4.436,21.543,21.543,0,0,1-8.2,1.565,18.355,18.355,0,0,1-7.689-1.718,16.749,16.749,0,0,1-5.784-4.5A17.307,17.307,0,0,1,3.387,28.53a19.754,19.754,0,0,1-.416-7.95,22.967,22.967,0,0,1,2.7-7.9,24.979,24.979,0,0,1,5.176-6.441,24.44,24.44,0,0,1,6.944-4.371A21.682,21.682,0,0,1,25.817.209,18.513,18.513,0,0,1,33.47,1.722a16.8,16.8,0,0,1,5.9,4.312,17.2,17.2,0,0,1,3.558,6.5,19.581,19.581,0,0,1,.592,8.047" transform="translate(0 0)" fill="#c6466d"/>
      <path id="Path_7120" data-name="Path 7120" d="M32.638,15.442a17.176,17.176,0,0,1-2,6.063,18.74,18.74,0,0,1-3.964,4.955,18.32,18.32,0,0,1-5.347,3.323,16.19,16.19,0,0,1-6.14,1.184A13.789,13.789,0,0,1,9.415,29.7a12.574,12.574,0,0,1-4.352-3.357A12.981,12.981,0,0,1,2.527,21.42,14.813,14.813,0,0,1,2.2,15.442,17.227,17.227,0,0,1,4.223,9.5a18.756,18.756,0,0,1,3.9-4.852A18.346,18.346,0,0,1,13.35,1.357,16.254,16.254,0,0,1,19.389.118a13.881,13.881,0,0,1,5.75,1.155A12.6,12.6,0,0,1,29.56,4.527a12.925,12.925,0,0,1,2.651,4.885,14.712,14.712,0,0,1,.428,6.03" transform="translate(5.739 5.137)" fill="#ff467f"/>
      <path id="Path_7128" data-name="Path 7128" d="M15.126,10.526a1.724,1.724,0,0,1,.457-.459.866.866,0,0,1,.469-.153.685.685,0,0,1,.429.153,1.169,1.169,0,0,1,.334.459l2.23,5.186a1.3,1.3,0,0,1,.12.58.881.881,0,0,1-.158.474.954.954,0,0,1-.4.319,1.5,1.5,0,0,1-.612.115l-5.875-.022a1.259,1.259,0,0,1-.57-.119.652.652,0,0,1-.312-.32.77.77,0,0,1-.033-.473,1.632,1.632,0,0,1,.268-.577ZM10.868.656A1.735,1.735,0,0,1,11.319.2a.855.855,0,0,1,.462-.153A.667.667,0,0,1,12.2.2a1.151,1.151,0,0,1,.328.452l.484,1.166L14.169,4.5a2.513,2.513,0,0,1,.127.6,2.789,2.789,0,0,1-.015.624,3.048,3.048,0,0,1-.154.625,3.234,3.234,0,0,1-.289.6L7.513,15.915a3.353,3.353,0,0,1-.47.494,3.25,3.25,0,0,1-.549.38,3.062,3.062,0,0,1-.6.253,2.831,2.831,0,0,1-.637.112l-4.217-.016a1.271,1.271,0,0,1-.569-.117A.636.636,0,0,1,.158,16.7a.757.757,0,0,1-.028-.47A1.67,1.67,0,0,1,.4,15.657Z" transform="translate(12.554 10.8)" fill="#fff"/>
    </g>
  </g>
</svg>
