<svg id="Group_4860" data-name="Group 4860" xmlns="http://www.w3.org/2000/svg" xmlns:xlink="http://www.w3.org/1999/xlink" width="24" height="24" viewBox="0 0 24 24">
  <defs>
    <clipPath id="clip-path">
      <rect id="Rectangle_3086" data-name="Rectangle 3086" width="24" height="24" fill="none" stroke="#02FBFF" stroke-width="1"/>
    </clipPath>
  </defs>
  <line id="Line_283" data-name="Line 283" x2="6" transform="translate(9 8.018)" fill="none" stroke="#02FBFF" stroke-linecap="round" stroke-linejoin="round" stroke-width="1.5"/>
  <line id="Line_284" data-name="Line 284" x2="3" transform="translate(9 12)" fill="none" stroke="#02FBFF" stroke-linecap="round" stroke-linejoin="round" stroke-width="1.5"/>
  <g id="Group_4861" data-name="Group 4861">
    <g id="Group_4860-2" data-name="Group 4860" clip-path="url(#clip-path)">
      <path id="Path_7750" data-name="Path 7750" d="M4.5,4H16a2,2,0,0,1,2,2V16" fill="none" stroke="#02FBFF" stroke-linecap="round" stroke-linejoin="round" stroke-width="1.5"/>
      <path id="Path_7751" data-name="Path 7751" d="M7.5,20H19a2,2,0,0,0,2-2V17a1,1,0,0,0-1-1H10a1,1,0,0,0-1,1v1.5a1.5,1.5,0,0,1-3,0V5.5a1.5,1.5,0,0,0-3,0V8A1,1,0,0,0,4,9H6" fill="none" stroke="#02FBFF" stroke-linecap="round" stroke-linejoin="round" stroke-width="1.5"/>
    </g>
  </g>
</svg>
