<svg xmlns="http://www.w3.org/2000/svg" width="24" height="24" viewBox="0 0 24 24">
  <g id="vuesax_bulk_empty-wallet" data-name="vuesax/bulk/empty-wallet" transform="translate(-236 -188)">
    <g id="empty-wallet">
      <path id="Vector" d="M0,0H24V24H0Z" transform="translate(236 188)" fill="none" opacity="0"/>
      <g id="Vector-2" data-name="Vector" transform="translate(238.5 195.75)" fill="none">
        <path d="M15.54,5.8a2.008,2.008,0,0,0-.6,1.63A2.132,2.132,0,0,0,17.1,9.3H19v1.19a3.768,3.768,0,0,1-3.76,3.76H3.76A3.768,3.768,0,0,1,0,10.49V3.76A3.768,3.768,0,0,1,3.76,0H15.24A3.768,3.768,0,0,1,19,3.76V5.2H16.98A1.993,1.993,0,0,0,15.54,5.8Z" stroke="none"/>
        <path d="M 3.760000228881836 1 C 2.238130569458008 1 1 2.238140106201172 1 3.760009765625 L 1 10.489990234375 C 1 12.01185989379883 2.238130569458008 13.25 3.760000228881836 13.25 L 15.23999977111816 13.25 C 16.76186943054199 13.25 18 12.01185989379883 18 10.489990234375 L 18 10.29998970031738 L 17.10000038146973 10.29998970031738 C 15.46231174468994 10.29998970031738 14.07724285125732 9.078914642333984 13.94395446777344 7.519015312194824 C 13.85964679718018 6.615417003631592 14.18313217163086 5.732358932495117 14.83232307434082 5.093378067016602 C 15.39801692962646 4.517206192016602 16.16023445129395 4.200010299682617 16.97999954223633 4.200010299682617 L 18 4.200010299682617 L 18 3.760009765625 C 18 2.238140106201172 16.76186943054199 1 15.23999977111816 1 L 3.760000228881836 1 M 3.760000228881836 0 L 15.23999977111816 0 C 17.30999946594238 0 19 1.690010070800781 19 3.760009765625 L 19 5.200010299682617 L 16.97999954223633 5.200010299682617 C 16.42000007629395 5.200010299682617 15.90999984741211 5.419989585876465 15.53999996185303 5.799989700317383 C 15.11999988555908 6.209989547729492 14.88000011444092 6.799990177154541 14.94000053405762 7.429989814758301 C 15.02999973297119 8.509990692138672 16.02000045776367 9.299989700317383 17.10000038146973 9.299989700317383 L 19 9.299989700317383 L 19 10.489990234375 C 19 12.55998992919922 17.30999946594238 14.25 15.23999977111816 14.25 L 3.760000228881836 14.25 C 1.690000534057617 14.25 0 12.55998992919922 0 10.489990234375 L 0 3.760009765625 C 0 1.690010070800781 1.690000534057617 0 3.760000228881836 0 Z" stroke="none" fill="#dbedf7"/>
      </g>
      <g id="Vector-3" data-name="Vector" transform="translate(238.5 190.049)" fill="none">
        <path d="M12.35,1.9V5.7H3.76A3.768,3.768,0,0,0,0,9.461V5.791a2.848,2.848,0,0,1,1.84-2.67l7.94-3A1.9,1.9,0,0,1,12.35,1.9Z" stroke="none"/>
        <path d="M 10.44634056091309 1.000000953674316 C 10.34003925323486 1.000000953674316 10.2335786819458 1.019372940063477 10.12987327575684 1.057581901550293 L 2.193890571594238 4.056070804595947 C 1.536091804504395 4.304965019226074 1.089402198791504 4.888262271881104 1.011994361877441 5.576131820678711 C 1.788728713989258 5.02510929107666 2.737301826477051 4.700790882110596 3.760000228881836 4.700790882110596 L 11.35000038146973 4.700790882110596 L 11.35000038146973 1.900811195373535 C 11.35000038146973 1.344400882720947 10.88092994689941 1.000000953674316 10.44634056091309 1.000000953674316 M 10.4463415145874 3.814697265625e-06 C 11.45354747772217 3.814697265625e-06 12.35000038146973 0.8088216781616211 12.35000038146973 1.900811195373535 L 12.35000038146973 5.700791358947754 L 3.760000228881836 5.700791358947754 C 1.690000534057617 5.700791358947754 0 7.390800952911377 0 9.460801124572754 L 0 5.790821075439453 C 0 4.600821018218994 0.7300004959106445 3.540781021118164 1.840000152587891 3.120780944824219 L 9.780000686645508 0.1207809448242188 C 10.00190448760986 0.03846168518066406 10.22681045532227 3.814697265625e-06 10.4463415145874 3.814697265625e-06 Z" stroke="none" fill="#dbedf7"/>
      </g>
      <g id="Vector-4" data-name="Vector" transform="translate(253.431 200.95)" fill="none">
        <path d="M5.129,1.02V3.08a1.027,1.027,0,0,1-1,1.02H2.169A2.132,2.132,0,0,1,.009,2.23,2.008,2.008,0,0,1,.609.6,1.993,1.993,0,0,1,2.049,0h2.08A1.027,1.027,0,0,1,5.129,1.02Z" stroke="none"/>
        <path d="M 2.049123287200928 0.9999978542327881 C 1.769403219223022 0.9999978542327881 1.512453317642212 1.105687856674194 1.325593233108521 1.297597885131836 L 1.307663202285767 1.315547704696655 C 1.086063385009766 1.531867742538452 0.9756131172180176 1.830607891082764 1.004623413085938 2.135167837142944 L 1.005673408508301 2.146927833557129 C 1.049463272094727 2.672447681427002 1.571383237838745 3.099977731704712 2.169123411178589 3.099977731704712 L 4.10074520111084 3.099977731704712 C 4.120693206787109 3.097119331359863 4.129123210906982 3.086065053939819 4.129123210906982 3.080017805099487 L 4.129123210906982 1.019957780838013 C 4.129123210906982 1.013910531997681 4.120693206787109 1.002856254577637 4.10074520111084 0.9999978542327881 L 2.049123287200928 0.9999978542327881 M 2.049123287200928 -2.384185791015625e-06 L 4.129123210906982 -2.384185791015625e-06 C 4.689123153686523 0.01999759674072266 5.129123210906982 0.4699578285217285 5.129123210906982 1.019957780838013 L 5.129123210906982 3.080017805099487 C 5.129123210906982 3.630017757415771 4.689123153686523 4.079977989196777 4.129123210906982 4.099977970123291 L 2.169123411178589 4.099977970123291 C 1.089123249053955 4.099977970123291 0.09912347793579102 3.309977769851685 0.009123325347900391 2.22997784614563 C -0.05087661743164062 1.599977731704712 0.1891231536865234 1.0099778175354 0.6091232299804688 0.5999777317047119 C 0.9791231155395508 0.219977855682373 1.489123344421387 -2.384185791015625e-06 2.049123287200928 -2.384185791015625e-06 Z" stroke="none" fill="#dbedf7"/>
      </g>
      <g id="Group">
        <g id="Vector-5" data-name="Vector" transform="translate(242.25 199.25)" fill="none">
          <path d="M7.75,1.5h-7A.755.755,0,0,1,0,.75.755.755,0,0,1,.75,0h7A.755.755,0,0,1,8.5.75.755.755,0,0,1,7.75,1.5Z" stroke="none"/>
          <path d="M 7.75 1.5 L 0.75 1.5 C 0.3400000035762787 1.5 0 1.159999966621399 0 0.75 C 0 0.3400000035762787 0.3400000035762787 -1.110223024625157e-16 0.75 -1.110223024625157e-16 L 7.75 -1.110223024625157e-16 C 8.159999847412109 -1.110223024625157e-16 8.5 0.3400000035762787 8.5 0.75 C 8.5 1.159999966621399 8.159999847412109 1.5 7.75 1.5 Z" stroke="none" fill="#dbedf7"/>
        </g>
      </g>
    </g>
  </g>
</svg>
